<?xml version="1.0" encoding="utf-8"?>
<!-- Generator: Adobe Illustrator 17.1.0, SVG Export Plug-In . SVG Version: 6.00 Build 0)  -->
<!DOCTYPE svg PUBLIC "-//W3C//DTD SVG 1.1//EN" "http://www.w3.org/Graphics/SVG/1.1/DTD/svg11.dtd">
<svg version="1.1" id="Camada_1" xmlns="http://www.w3.org/2000/svg" xmlns:xlink="http://www.w3.org/1999/xlink" x="0px" y="0px"
	 width="99.2px" height="30px" viewBox="0 0 99.2 30" enable-background="new 0 0 99.2 30" xml:space="preserve">
<g>
	<path fill="#FFFFFF" d="M21.6,4.2l-3,2.7c-2-2-4.3-3-6.8-3c-2.1,0-3.9,0.7-5.4,2C5,7.3,4.3,9,4.3,11c0,2.9,1.2,5,3.7,6.3
		c1.2,0.6,2.5,0.9,3.9,0.9c1.4,0,2.6-0.3,3.7-0.8c0.9-0.5,1.9-1.2,3-2.2l2.9,2.8c-1.5,1.4-3,2.4-4.4,3c-1.5,0.7-3.3,1-5.3,1
		c-3.5,0-6.3-1-8.5-3.1C1.1,16.9,0,14.2,0,11c0-4.3,2-7.4,5.8-9.5C7.7,0.5,9.7,0,11.9,0C15.8,0,19.1,1.4,21.6,4.2L21.6,4.2z
		 M39.6,21.5L39.6,21.5h-4.1v-1.6c-1.5,1.4-3.2,2-5.1,2c-2.3,0-4.2-0.8-5.7-2.5c-1.4-1.6-2.2-3.5-2.2-5.7c0-2.2,0.7-4.1,2.1-5.7
		c1.5-1.7,3.4-2.5,5.7-2.5c2,0,3.7,0.7,5.2,2.1V6h4.1V21.5z M35.6,13.7L35.6,13.7c0-1.3-0.4-2.4-1.2-3.2c-0.8-0.9-1.9-1.3-3.3-1.3
		c-1.4,0-2.4,0.5-3.3,1.3c-0.8,0.9-1.2,1.9-1.2,3.2s0.4,2.3,1.2,3.2c0.9,0.9,1.9,1.4,3.3,1.4c1.4,0,2.5-0.4,3.3-1.3
		C35.2,16.1,35.6,15,35.6,13.7L35.6,13.7z M49.9,6L49.9,6l-1.3,3.3C48.2,9.1,47.8,9,47.5,9c-0.6,0-1.2,0.4-1.6,1.1
		c-0.5,0.8-0.7,2.3-0.7,4.4l0,0.8v6.3h-4.1V6h3.6v2c0.8-1.6,2-2.4,3.6-2.4C48.8,5.6,49.4,5.7,49.9,6L49.9,6z"/>
	<path fill="#20A452" d="M79.8,21.5h-4.1v-1.6c-1.5,1.4-3.2,2-5.1,2c-2.3,0-4.2-0.8-5.7-2.5c-1.4-1.6-2.2-3.5-2.2-5.7
		c0-2.2,0.7-4.1,2.1-5.7c1.5-1.7,3.4-2.5,5.7-2.5c2,0,3.7,0.7,5.2,2.1V6h4.1V21.5z M75.8,13.7L75.8,13.7c0-1.3-0.4-2.4-1.2-3.2
		c-0.8-0.9-1.9-1.3-3.3-1.3c-1.3,0-2.4,0.5-3.3,1.3c-0.8,0.9-1.2,1.9-1.2,3.2s0.4,2.3,1.2,3.2c0.8,0.9,1.9,1.4,3.3,1.4
		c1.4,0,2.5-0.4,3.3-1.3C75.4,16.1,75.8,15,75.8,13.7L75.8,13.7z"/>
	<path fill-rule="evenodd" clip-rule="evenodd" fill="#20A452" d="M98.6,13.4c0,1.5-0.4,2.8-1.1,4.1c-0.8,1.3-1.8,2.3-3.2,3
		c-1.3,0.7-2.8,1.1-4.4,1.1c-1.7,0-3.2-0.4-4.6-1.2v9.1h-4V13.9c0-0.1,0-0.3,0-0.4c0-2.4,0.9-4.5,2.8-6.1c1.6-1.4,3.6-2.1,5.7-2.1
		c1.6,0,3,0.4,4.4,1.1c1.4,0.7,2.4,1.7,3.2,3C98.2,10.6,98.6,12,98.6,13.4L98.6,13.4z M94.4,13.4L94.4,13.4c0-1.3-0.4-2.4-1.2-3.2
		C92.3,9.4,91.3,9,89.9,9c-1.3,0-2.4,0.4-3.3,1.3c-0.8,0.8-1.2,1.9-1.2,3.2c0,1.3,0.4,2.4,1.2,3.2c0.8,0.9,1.9,1.3,3.3,1.3
		c1.3,0,2.4-0.4,3.3-1.3C94,15.8,94.4,14.7,94.4,13.4L94.4,13.4z"/>
	<polygon fill="#20A452" points="63.2,5.8 55.8,18 62.8,18 62.8,21.3 49.4,21.3 56.9,9.1 50.5,9.1 50.5,5.8 	"/>
</g>
</svg>
